<?xml version="1.0" encoding="UTF-8" standalone="no"?>
<!DOCTYPE svg PUBLIC "-//W3C//DTD SVG 20010904//EN"
              "http://www.w3.org/TR/2001/REC-SVG-20010904/DTD/svg10.dtd">

<svg xmlns="http://www.w3.org/2000/svg"
     width="2.84444in" height="3.5in"
     viewBox="0 0 256 315">
  <path id="Imported Path"
        fill="none" stroke="black" stroke-width="1"
        d="M 130.46,78.23
           C 130.46,78.23 163.47,159.71 163.47,159.71
             163.47,159.71 113.61,120.43 113.61,120.43
             113.61,120.43 130.46,78.23 130.46,78.23 Z
           M 189.10,178.47
           C 189.10,178.47 138.33,56.27 138.33,56.27
             136.88,52.75 133.98,50.88 130.46,50.88
             126.94,50.88 123.83,52.75 122.38,56.27
             122.38,56.27 66.64,190.31 66.64,190.31
             66.64,190.31 85.71,190.31 85.71,190.31
             85.71,190.31 107.77,135.05 107.77,135.05
             107.77,135.05 173.61,188.24 173.61,188.24
             176.26,190.38 178.17,191.35 180.65,191.35
             185.63,191.35 189.97,187.62 189.97,182.24
             189.97,181.36 189.66,179.97 189.10,178.47
             189.10,178.47 189.10,178.47 189.10,178.47 Z
           M 255.88,127.87
           C 255.88,198.32 198.77,255.43 128.31,255.43
             57.86,255.43 0.75,198.32 0.75,127.87
             0.75,57.42 57.86,0.30 128.31,0.30
             198.77,0.30 255.88,57.42 255.88,127.87M 14.14,288.89
           C 14.14,288.89 21.32,306.88 21.32,306.88
             21.32,306.88 10.48,298.21 10.48,298.21
             10.48,298.21 14.14,288.89 14.14,288.89 Z
           M 26.89,311.02
           C 26.89,311.02 15.85,284.05 15.85,284.05
             15.53,283.27 14.90,282.86 14.14,282.86
             13.37,282.86 12.70,283.27 12.38,284.05
             12.38,284.05 0.26,313.64 0.26,313.64
             0.26,313.64 4.41,313.64 4.41,313.64
             4.41,313.64 9.21,301.44 9.21,301.44
             9.21,301.44 23.52,313.18 23.52,313.18
             24.10,313.65 24.51,313.86 25.05,313.86
             26.13,313.86 27.08,313.04 27.08,311.85
             27.08,311.66 27.01,311.35 26.89,311.02
             26.89,311.02 26.89,311.02 26.89,311.02 Z
           M 245.53,314.14
           C 237.15,314.14 232.10,311.03 232.10,304.77
             232.10,301.79 233.77,298.96 237.01,297.63
             234.40,295.99 233.05,293.65 233.05,291.09
             233.05,285.42 237.42,282.73 245.62,282.73
             248.36,282.73 252.24,283.05 255.48,283.78
             255.48,283.78 255.03,287.16 255.03,287.16
             251.61,286.61 248.41,286.29 245.30,286.29
             239.99,286.29 237.15,287.76 237.15,291.28
             237.15,294.07 239.76,296.26 243.23,296.26
             243.23,296.26 250.26,296.26 250.26,296.26
             251.25,296.26 252.01,297.04 252.01,298.00
             252.01,299.00 251.25,299.78 250.26,299.78
             250.26,299.78 242.69,299.78 242.69,299.78
             238.73,299.78 236.20,301.75 236.20,304.77
             236.20,309.20 240.30,310.53 245.44,310.53
             248.23,310.53 252.01,310.16 255.07,309.43
             255.07,309.43 255.66,312.77 255.66,312.77
             252.73,313.59 248.90,314.14 245.53,314.14M 199.21,313.64
           C 198.09,313.64 197.19,312.67 197.19,311.58
             197.19,311.58 197.19,283.18 197.19,283.18
             197.19,283.18 201.28,283.18 201.28,283.18
             201.28,283.18 201.28,309.93 201.28,309.93
             201.28,309.93 217.59,309.93 217.59,309.93
             217.59,309.93 217.59,313.64 217.59,313.64
             217.59,313.64 199.21,313.64 199.21,313.64 Z
           M 169.76,299.83
           C 169.76,299.83 159.58,299.83 159.58,299.83
             159.58,299.83 159.58,310.16 159.58,310.16
             159.58,310.16 169.76,310.16 169.76,310.16
             173.23,310.16 175.34,307.97 175.34,304.90
             175.34,302.02 173.14,299.83 169.76,299.83M 167.78,286.66
           C 167.78,286.66 159.58,286.66 159.58,286.66
             159.58,286.66 159.58,296.40 159.58,296.40
             159.58,296.40 167.78,296.40 167.78,296.40
             171.06,296.40 173.45,294.29 173.45,291.37
             173.45,288.49 171.38,286.66 167.78,286.66M 169.80,313.64
           C 169.80,313.64 157.55,313.64 157.55,313.64
             156.38,313.64 155.48,312.72 155.48,311.58
             155.48,311.58 155.48,285.24 155.48,285.24
             155.48,284.14 156.38,283.18 157.55,283.18
             157.55,283.18 167.69,283.18 167.69,283.18
             173.90,283.18 177.59,286.25 177.59,291.05
             177.59,293.65 176.06,296.08 173.72,297.49
             177.19,298.55 179.53,301.43 179.53,304.90
             179.53,309.75 175.52,313.64 169.80,313.64M 130.80,283.18
           C 130.80,283.18 134.90,283.18 134.90,283.18
             134.90,283.18 134.90,313.63 134.90,313.63
             134.90,313.63 130.80,313.63 130.80,313.63
             130.80,313.63 130.80,283.18 130.80,283.18 Z
           M 100.31,314.14
           C 96.34,314.14 92.20,313.31 88.33,311.85
             88.33,311.85 89.27,308.56 89.27,308.56
             92.83,309.70 96.70,310.53 100.31,310.53
             105.31,310.53 107.92,308.74 107.92,306.23
             107.92,303.94 105.89,302.80 98.91,299.51
             91.93,296.21 89.18,294.11 89.18,290.00
             89.18,284.83 93.15,282.73 100.62,282.73
             103.73,282.73 108.50,283.37 111.25,284.19
             111.25,284.19 110.62,287.57 110.62,287.57
             107.60,286.84 103.82,286.34 100.71,286.34
             95.44,286.34 93.28,287.34 93.28,289.86
             93.28,292.33 94.86,293.38 102.24,296.81
             110.03,300.42 112.02,302.25 112.02,306.00
             112.02,311.44 106.88,314.14 100.31,314.14M 67.52,313.86
           C 66.98,313.86 66.39,313.73 65.98,313.18
             65.98,313.18 48.60,290.32 48.60,290.32
             48.60,290.32 48.60,313.64 48.60,313.64
             48.60,313.64 44.64,313.64 44.64,313.64
             44.64,313.64 44.64,284.92 44.64,284.92
             44.64,283.78 45.58,282.86 46.66,282.86
             47.29,282.86 47.84,283.05 48.24,283.60
             48.24,283.60 65.58,306.41 65.58,306.41
             65.58,306.41 65.58,283.18 65.58,283.18
             65.58,283.18 69.54,283.18 69.54,283.18
             69.54,283.18 69.54,311.85 69.54,311.85
             69.54,313.04 68.60,313.86 67.52,313.86" />
</svg>
